<svg width="270" height="487" viewBox="0 0 270 487" fill="none" xmlns="http://www.w3.org/2000/svg">
<g clip-path="url(#clip0_212_98)">
<path d="M47.394 457.804L46.8485 445.56C46.7918 445.53 46.7351 445.501 46.6782 445.471C40.8334 442.409 34.1346 447.951 36.0015 454.271C37.7581 460.218 38.9382 466.628 42.1534 471.833C44.0531 474.856 46.61 477.414 49.6345 479.317C52.659 481.219 56.0737 482.418 59.6254 482.824L67.0512 487.363C68.0701 481.693 67.8455 475.869 66.3927 470.293C64.9399 464.718 62.2936 459.523 58.636 455.067C56.5593 452.587 54.178 450.379 51.5484 448.493C49.7699 453.174 47.394 457.804 47.394 457.804Z" fill="#F2F2F2"/>
<path d="M-19.09 333.556C-33.3865 318.837 -54.1042 310.396 -75.9308 310.396L-76.7727 310.398C-91.1493 310.404 -105.269 306.597 -117.689 299.368L-118.981 298.616L-117.94 297.546C-112.305 291.726 -107.6 285.076 -103.989 277.828C-106.553 280.215 -109.612 282.01 -112.948 283.085C-116.285 284.161 -119.817 284.492 -123.295 284.054C-126.968 283.617 -130.494 282.356 -133.608 280.364C-136.722 278.373 -139.345 275.703 -141.278 272.556C-148.907 260.2 -158 242.668 -158 229.312C-157.988 218.023 -155.62 206.86 -151.047 196.534C-146.474 186.209 -139.796 176.948 -131.439 169.342C-126.149 164.58 -121.923 158.758 -119.037 152.257C-116.152 145.755 -114.671 138.719 -114.692 131.607L-114.696 130.595C-114.698 121.233 -113.552 111.905 -111.284 102.821L-111.053 101.903L-110.108 101.936C-104.011 102.143 -97.91 101.633 -91.9323 100.416C-97.5394 99.7297 -103.025 98.2733 -108.233 96.0884L-109.25 95.6776L-108.905 94.6371C-85.1087 79.9293 -31.3944 87.5458 -0.21701 16.3386C25.0636 -41.4008 114.262 67.5938 114.262 130.595C114.262 137.024 107.889 145.519 112.66 149.768C164.234 195.7 128.649 225.194 117.429 254.872C114.767 261.914 120.539 269.644 120.539 277.262C120.539 278.555 120.506 279.889 120.441 281.228L120.342 283.287L118.622 282.144C115.22 279.92 112.067 277.338 109.216 274.443C112.173 281.237 113.567 288.607 113.295 296.01C113.022 303.414 111.09 310.662 107.641 317.221C102.236 327.404 97.0075 334.695 92.0999 338.888C76.3789 352.318 56.1124 359.246 35.4445 358.255C14.7767 357.263 -4.73117 348.428 -19.09 333.556Z" fill="#A5BEFF"/>
<path d="M67.2566 486.759C67.6081 486.759 67.9476 486.632 68.2129 486.402C68.4782 486.171 68.6515 485.854 68.7011 485.506C68.7631 485.071 74.8421 441.305 69.3825 383.139C64.3405 329.421 48.1487 252.048 -0.355586 188.503C-0.471761 188.35 -0.616908 188.222 -0.78277 188.126C-0.948631 188.029 -1.13192 187.966 -1.32218 187.94C-1.51244 187.915 -1.70593 187.927 -1.89157 187.975C-2.07721 188.024 -2.25135 188.109 -2.40406 188.226C-2.55678 188.342 -2.68508 188.487 -2.78159 188.652C-2.87809 188.818 -2.9409 189.001 -2.96647 189.191C-2.99205 189.381 -2.97986 189.574 -2.93061 189.76C-2.88136 189.945 -2.79602 190.119 -2.67946 190.271C45.4059 253.267 61.4671 330.072 66.4736 383.411C71.9014 441.239 65.8701 484.663 65.8086 485.095C65.7793 485.302 65.7948 485.513 65.8541 485.713C65.9135 485.914 66.0152 486.099 66.1525 486.257C66.2898 486.415 66.4594 486.541 66.6499 486.628C66.8404 486.714 67.0473 486.759 67.2566 486.759Z" fill="#3F3D56"/>
<path d="M27.6743 278.136C27.9829 278.136 28.2836 278.039 28.5333 277.858C28.7831 277.677 28.969 277.422 29.0645 277.129C29.16 276.836 29.1601 276.521 29.0649 276.228C28.9696 275.935 28.7839 275.679 28.5343 275.498C28.3582 275.371 10.614 262.608 -15.9134 252.912C-40.436 243.949 -77.7263 235.825 -116.116 248.021C-116.299 248.079 -116.469 248.172 -116.616 248.296C-116.763 248.419 -116.884 248.57 -116.972 248.741C-117.061 248.911 -117.114 249.097 -117.131 249.288C-117.147 249.479 -117.125 249.671 -117.067 249.854C-117.009 250.036 -116.915 250.206 -116.791 250.352C-116.667 250.499 -116.516 250.619 -116.345 250.707C-116.175 250.795 -115.988 250.849 -115.797 250.865C-115.606 250.881 -115.413 250.859 -115.23 250.8C-77.6269 238.854 -41.0126 246.845 -16.918 255.651C9.23075 265.208 26.6438 277.732 26.8167 277.858C27.0658 278.039 27.3661 278.136 27.6743 278.136Z" fill="#3F3D56"/>
<path d="M94.5325 111.909C94.5549 111.601 94.4794 111.295 94.3166 111.033C94.1539 110.772 93.9123 110.568 93.6265 110.452C93.3407 110.336 93.0254 110.313 92.7258 110.387C92.4262 110.46 92.1577 110.627 91.9588 110.862C91.8185 111.029 77.7885 127.777 66.1903 153.491C55.4697 177.261 44.6664 213.805 54.0881 252.906C54.1787 253.282 54.4152 253.607 54.7456 253.809C55.0759 254.011 55.4732 254.073 55.8498 253.983C56.2265 253.892 56.5517 253.656 56.754 253.327C56.9562 252.997 57.019 252.6 56.9284 252.224C47.7004 213.924 58.3209 178.044 68.8546 154.688C80.287 129.341 94.0546 112.906 94.1923 112.742C94.3913 112.508 94.5104 112.216 94.5325 111.909Z" fill="#3F3D56"/>
<path d="M92.5555 187.101C93.788 197.027 100.678 205.212 110.698 205.212C115.51 205.212 120.125 203.304 123.527 199.907C126.93 196.511 128.841 191.904 128.841 187.101C128.841 177.098 120.675 169.914 110.698 168.99C100.112 168.008 90.9731 174.356 92.5555 187.101Z" fill="#2F2E41"/>
<path d="M119.101 478.782L126.01 478.781L129.297 452.179L119.1 452.179L119.101 478.782Z" fill="#FFB6B6"/>
<path d="M118.859 485.977L140.105 485.976V485.708C140.104 483.518 139.233 481.419 137.682 479.871C136.132 478.322 134.028 477.453 131.835 477.453H131.835L127.954 474.514L120.713 477.453L118.858 477.453L118.859 485.977Z" fill="#2F2E41"/>
<path d="M91.8871 478.782L98.796 478.781L102.083 452.179L91.8857 452.179L91.8871 478.782Z" fill="#FFB6B6"/>
<path d="M91.6442 485.977L112.89 485.976V485.708C112.89 483.518 112.019 481.419 110.468 479.871C108.917 478.322 106.814 477.453 104.621 477.453H104.62L100.739 474.514L93.4985 477.453L91.6439 477.453L91.6442 485.977Z" fill="#2F2E41"/>
<path d="M142.877 312.165L147.762 328.883L142.007 399.687C142.007 399.687 144.97 404.114 142.877 404.114C140.784 404.114 138.099 405.096 139.79 407.74C141.481 410.383 135.701 419.875 135.701 419.875L127.525 470.29L117.108 470.136C117.108 470.136 111.811 467.191 114.784 464.212C117.756 461.234 119.849 461.234 117.058 458.448C114.267 455.661 114.267 456.501 114.267 454.339C114.267 452.178 111.471 425.769 118.102 415.638L116.104 374.334L111.398 414.848L101.707 468.896L91.671 468.814C91.671 468.814 87.0356 464.354 87.0442 461.053C87.0527 457.751 89.9081 457.477 87.7826 455.524C85.6571 453.572 85.6571 423.575 91.9374 406.9C91.9374 406.9 95.4899 397.584 91.9293 394.392C88.3687 391.2 91.9249 387.547 91.9249 387.547C91.9249 387.547 97.5644 385.512 91.9198 379.649C86.2753 373.785 91.8893 332.316 91.8893 332.316C91.8893 332.316 85.7188 315.577 91.9682 308.995C98.2176 302.413 142.877 312.165 142.877 312.165Z" fill="#2F2E41"/>
<path d="M55.8786 340.969L64.5937 319.944L71.4601 323.752L67.3134 345.139C67.7287 346.494 67.7571 347.938 67.3955 349.308C67.0339 350.678 66.2966 351.921 65.2665 352.896C64.2363 353.87 62.9542 354.539 61.5643 354.826C60.1743 355.114 58.7316 355.008 57.3984 354.522C56.0651 354.036 54.8942 353.188 54.0173 352.074C53.1403 350.96 52.592 349.623 52.4341 348.215C52.2762 346.807 52.515 345.383 53.1235 344.103C53.732 342.822 54.6861 341.737 55.8786 340.969Z" fill="#FFB6B6"/>
<path d="M202.12 174.714L188.86 193.221L183.036 187.959L191.93 168.066C191.833 166.652 192.133 165.239 192.796 163.987C193.459 162.734 194.459 161.69 195.684 160.974C196.908 160.257 198.309 159.896 199.728 159.931C201.147 159.965 202.528 160.394 203.716 161.169C204.905 161.945 205.853 163.035 206.454 164.319C207.055 165.602 207.286 167.028 207.12 168.435C206.954 169.843 206.398 171.176 205.515 172.285C204.632 173.394 203.456 174.235 202.12 174.714Z" fill="#FFB6B6"/>
<path d="M144.193 313.879C152.794 327.197 109.56 344.097 92.971 337.312C90.0662 336.124 80.0741 332.2 86.904 326.759C93.734 321.319 86.1122 320.553 85.932 317.011C85.8116 314.643 87.648 309.449 85.7319 309.672C83.8158 309.895 81.5732 306.62 85.7462 305.211C89.9193 303.802 85.791 302.517 85.8275 301.179C86.2266 286.582 97.4458 263.364 97.4458 263.364L77.2297 314.951C77.2297 314.951 77.3791 323.875 74.801 321.148C72.223 318.421 72.4106 327.248 72.4106 327.248C72.4106 327.248 68.5772 329.919 70.7816 331.405C72.9859 332.891 68.4083 337.461 68.4083 337.461L57.7273 336.699C57.7273 336.699 57.8945 328.779 59.7182 327.027C61.542 325.275 60.6462 322.519 60.6462 322.519C60.6462 322.519 65.3944 318.323 62.2111 314.916C58.117 310.535 73.0439 236.53 78.1953 237.263C78.9236 233.724 80.6178 230.456 83.0906 227.819C85.5634 225.182 88.7186 223.279 92.2073 222.32L103.744 219.149L105.792 211.035H122.036L124.865 216.367L137.215 221.93C139.541 218.654 141.279 215.201 150.805 214.082C150.805 214.082 176.472 190.769 175.219 188.949C173.966 187.129 177.944 182.867 177.944 182.867C177.944 182.867 181.342 181.757 179.425 181.164C177.508 180.572 181.132 179.201 181.132 179.201C181.132 179.201 184.488 178.321 182.905 177.161C181.322 176.002 188.189 175.24 188.189 175.24L197.098 182.497L195.297 185.544C195.297 185.544 196.395 189.695 194.962 188.179C193.529 186.664 193.259 191.061 193.259 191.061C193.259 191.061 192.528 195.876 188.189 197.327C183.85 198.777 180.559 212.559 180.559 212.559C170.326 225.841 158.25 236.202 143.939 243.023C149.516 249.413 144.193 313.879 144.193 313.879Z" fill="#6C63FF"/>
<path d="M112.704 206.287C121.589 206.287 128.792 199.097 128.792 190.227C128.792 181.357 121.589 174.167 112.704 174.167C103.819 174.167 96.6155 181.357 96.6155 190.227C96.6155 199.097 103.819 206.287 112.704 206.287Z" fill="#FFB6B6"/>
<path d="M96.0445 191.977C96.5539 195.467 99.5335 200.336 98.8357 200.336C98.1379 200.336 93.1765 185.949 98.1379 185.011C101.737 184.331 102.541 184.927 105.904 183.472L105.43 183.917C107.656 185.533 110.754 184.537 113.294 183.485C115.841 182.441 118.932 181.444 121.165 183.054C122.568 184.064 123.161 185.819 124.033 187.31C124.906 188.807 126.518 190.221 128.178 189.762C129.511 189.392 130.279 187.902 130.272 186.523C130.265 185.143 128.466 183.831 129.072 182.594C130.867 178.927 129.252 176.427 125.338 174.702C123.915 174.486 122.491 174.265 121.068 174.04C121.814 173.008 122.718 172.101 123.747 171.351C123.312 170.238 122.56 169.276 121.584 168.586C120.447 167.91 119.037 167.959 117.718 168.028C114.774 168.181 111.831 168.335 108.891 168.488C106.714 168.599 104.46 168.732 102.513 169.728C100.085 170.975 98.4938 173.406 97.3354 175.879C94.7396 181.437 95.1513 185.91 96.0445 191.977Z" fill="#2F2E41"/>
<path d="M29.1178 487.786L187.345 488C187.565 488 187.777 487.913 187.932 487.757C188.088 487.602 188.176 487.391 188.176 487.171C188.176 486.951 188.088 486.74 187.932 486.584C187.777 486.429 187.565 486.341 187.345 486.341L29.1178 486.127C28.8975 486.127 28.6861 486.215 28.5303 486.37C28.3745 486.526 28.287 486.737 28.287 486.957C28.287 487.177 28.3745 487.387 28.5303 487.543C28.6861 487.699 28.8975 487.786 29.1178 487.786Z" fill="#CACACA"/>
<path d="M6.20312 412.144C6.49481 410.143 4.39501 408.182 1.51312 407.763C-1.36877 407.344 -3.94145 408.627 -4.23314 410.629C-4.52483 412.63 -2.42507 414.592 0.45682 415.01C3.33871 415.429 5.91143 414.146 6.20312 412.144Z" fill="#3F3D56"/>
<path d="M235.661 308.213C235.953 306.211 233.853 304.25 230.971 303.831C228.089 303.413 225.516 304.696 225.225 306.697C224.933 308.698 227.033 310.66 229.915 311.078C232.797 311.497 235.369 310.214 235.661 308.213Z" fill="#A5BEFF"/>
<path d="M269.973 304.87C270.265 302.869 268.165 300.907 265.283 300.489C262.401 300.07 259.828 301.353 259.537 303.355C259.245 305.356 261.345 307.318 264.227 307.736C267.109 308.155 269.681 306.872 269.973 304.87Z" fill="#3F3D56"/>
<path d="M226.265 280.483C226.556 278.482 224.457 276.52 221.575 276.101C218.693 275.683 216.12 276.966 215.828 278.967C215.537 280.968 217.637 282.93 220.518 283.349C223.4 283.767 225.973 282.484 226.265 280.483Z" fill="#FF6584"/>
<path d="M211.356 269.124C211.37 267.287 210.343 265.79 209.063 265.78C207.782 265.771 206.733 267.252 206.719 269.089C206.705 270.927 207.732 272.424 209.012 272.434C210.293 272.443 211.342 270.962 211.356 269.124Z" fill="#A5BEFF"/>
<path d="M206.3 247.968C206.314 246.131 205.287 244.634 204.007 244.624C202.726 244.614 201.677 246.096 201.663 247.933C201.649 249.77 202.676 251.268 203.956 251.277C205.237 251.287 206.286 249.805 206.3 247.968Z" fill="#3F3D56"/>
<path d="M245.617 285.202C245.631 283.365 244.605 281.867 243.324 281.858C242.044 281.848 240.995 283.33 240.981 285.167C240.967 287.004 241.994 288.501 243.274 288.511C244.554 288.521 245.604 287.039 245.617 285.202Z" fill="#A5BEFF"/>
<path d="M229.036 293.466C229.05 291.629 228.024 290.132 226.743 290.122C225.463 290.112 224.414 291.594 224.4 293.431C224.386 295.268 225.413 296.766 226.693 296.775C227.973 296.785 229.023 295.303 229.036 293.466Z" fill="#FF6584"/>
<path d="M252.118 308.741C252.132 306.903 251.105 305.406 249.825 305.396C248.545 305.387 247.495 306.868 247.481 308.706C247.468 310.543 248.494 312.04 249.775 312.05C251.055 312.059 252.104 310.578 252.118 308.741Z" fill="#3F3D56"/>
<path d="M107.963 109.686C108.255 107.685 106.155 105.723 103.273 105.305C100.391 104.886 97.8183 106.169 97.5266 108.17C97.2349 110.172 99.3346 112.133 102.217 112.552C105.098 112.97 107.671 111.687 107.963 109.686Z" fill="white"/>
<path d="M142.275 106.344C142.567 104.343 140.467 102.381 137.585 101.962C134.703 101.544 132.13 102.827 131.839 104.828C131.547 106.829 133.647 108.791 136.529 109.21C139.41 109.628 141.983 108.345 142.275 106.344Z" fill="#3F3D56"/>
<path d="M98.5671 81.9564C98.8588 79.9551 96.759 77.9934 93.8771 77.5749C90.9953 77.1563 88.4226 78.4393 88.1309 80.4406C87.8392 82.4419 89.939 84.4036 92.8208 84.8222C95.7027 85.2407 98.2754 83.9577 98.5671 81.9564Z" fill="#FF6584"/>
<path d="M83.6577 70.5979C83.6716 68.7606 82.6449 67.2634 81.3646 67.2537C80.0843 67.2441 79.0351 68.7256 79.0212 70.5629C79.0073 72.4002 80.0339 73.8974 81.3142 73.9071C82.5945 73.9167 83.6437 72.4352 83.6577 70.5979Z" fill="#A5BEFF"/>
<path d="M78.6015 49.4415C78.6155 47.6042 77.5888 46.107 76.3085 46.0973C75.0282 46.0877 73.979 47.5692 73.965 49.4065C73.9511 51.2438 74.9778 52.741 76.2581 52.7507C77.5384 52.7603 78.5876 51.2788 78.6015 49.4415Z" fill="#3F3D56"/>
<path d="M117.919 86.6753C117.933 84.838 116.907 83.3408 115.626 83.3311C114.346 83.3215 113.297 84.803 113.283 86.6403C113.269 88.4775 114.296 89.9748 115.576 89.9844C116.856 89.9941 117.905 88.5125 117.919 86.6753Z" fill="#A5BEFF"/>
<path d="M101.338 94.9395C101.352 93.1023 100.326 91.6051 99.0453 91.5954C97.7649 91.5857 96.7158 93.0673 96.7018 94.9045C96.6879 96.7418 97.7145 98.239 98.9949 98.2487C100.275 98.2584 101.324 96.7768 101.338 94.9395Z" fill="#FF6584"/>
<path d="M124.42 110.214C124.434 108.377 123.407 106.88 122.127 106.87C120.846 106.86 119.797 108.342 119.783 110.179C119.769 112.016 120.796 113.514 122.076 113.523C123.357 113.533 124.406 112.051 124.42 110.214Z" fill="#3F3D56"/>
</g>
<defs>
<clipPath id="clip0_212_98">
<rect width="428" height="488" fill="white" transform="translate(-158)"/>
</clipPath>
</defs>
</svg>
